<svg width="400" height="80" viewBox="0 0 400 80" fill="none" xmlns="http://www.w3.org/2000/svg">
<rect width="400" height="80" rx="20" fill="#05543C"/>
<g clip-path="url(#clip0_166_7)">
<path fill-rule="evenodd" clip-rule="evenodd" d="M74.5096 22.2658C69.8327 17.5827 63.6123 15.0024 56.9845 15C43.3275 15 32.2127 26.1137 32.2079 39.7743C32.2056 44.1413 33.3472 48.4037 35.5153 52.1602L32 65L45.1344 61.5548C48.753 63.5294 52.8277 64.5687 56.9739 64.5699H56.9845C70.6392 64.5699 81.7553 53.4552 81.76 39.7945C81.7623 33.1739 79.188 26.95 74.5096 22.2669V22.2658ZM56.9845 60.3859H56.9762C53.2815 60.3848 49.657 59.3915 46.4946 57.5157L45.7427 57.0691L37.9483 59.1135L40.0284 51.5139L39.5389 50.7347C37.4778 47.4559 36.3884 43.6661 36.3908 39.7755C36.3956 28.4219 45.6334 19.184 56.9929 19.184C62.4932 19.1865 67.6634 21.3308 71.5516 25.2238C75.44 29.1157 77.5794 34.2906 77.5771 39.7921C77.5722 51.1469 68.3346 60.3848 56.9845 60.3848V60.3859ZM68.2799 44.9635C67.6609 44.6534 64.6174 43.1565 64.0495 42.9498C63.4816 42.743 63.0695 42.6398 62.6572 43.2598C62.245 43.8801 61.0582 45.2747 60.697 45.6868C60.3358 46.1003 59.9747 46.1515 59.3557 45.8413C58.7369 45.5312 56.7422 44.8779 54.3769 42.7691C52.5368 41.1274 51.294 39.1008 50.933 38.4805C50.5718 37.8605 50.895 37.5254 51.2038 37.2177C51.4818 36.9398 51.8228 36.4943 52.1328 36.1331C52.4429 35.7719 52.5451 35.5131 52.7517 35.1007C52.9586 34.6872 52.8551 34.3263 52.7008 34.0161C52.5462 33.7061 51.3084 30.6588 50.7916 29.4198C50.289 28.2129 49.7783 28.3768 49.3993 28.3566C49.038 28.3387 48.6259 28.3352 48.2125 28.3352C47.7991 28.3352 47.129 28.4896 46.5612 29.1098C45.9933 29.7298 44.3943 31.2279 44.3943 34.2738C44.3943 37.3199 46.6123 40.265 46.9224 40.6784C47.2323 41.0918 51.2881 47.3442 57.4977 50.0267C58.9744 50.6646 60.1279 51.0459 61.0273 51.331C62.51 51.8027 63.8594 51.7362 64.9261 51.5769C66.1155 51.3988 68.5889 50.0789 69.1044 48.633C69.6199 47.1873 69.6199 45.9471 69.4655 45.6892C69.3112 45.4315 68.8978 45.2758 68.2788 44.9658L68.2799 44.9635Z" fill="#43BF53"/>
</g>
<path d="M105.748 49.182C104.552 49.182 103.477 48.974 102.524 48.558C101.588 48.1247 100.851 47.5353 100.314 46.79C99.7767 46.0273 99.4993 45.152 99.482 44.164H102.004C102.091 45.0133 102.437 45.7327 103.044 46.322C103.668 46.894 104.569 47.18 105.748 47.18C106.875 47.18 107.759 46.9027 108.4 46.348C109.059 45.776 109.388 45.048 109.388 44.164C109.388 43.4707 109.197 42.9073 108.816 42.474C108.435 42.0407 107.958 41.7113 107.386 41.486C106.814 41.2607 106.043 41.018 105.072 40.758C103.876 40.446 102.914 40.134 102.186 39.822C101.475 39.51 100.86 39.0247 100.34 38.366C99.8373 37.69 99.586 36.7887 99.586 35.662C99.586 34.674 99.8373 33.7987 100.34 33.036C100.843 32.2733 101.545 31.684 102.446 31.268C103.365 30.852 104.413 30.644 105.592 30.644C107.291 30.644 108.677 31.0687 109.752 31.918C110.844 32.7673 111.459 33.894 111.598 35.298H108.998C108.911 34.6047 108.547 33.998 107.906 33.478C107.265 32.9407 106.415 32.672 105.358 32.672C104.37 32.672 103.564 32.932 102.94 33.452C102.316 33.9547 102.004 34.6653 102.004 35.584C102.004 36.2427 102.186 36.78 102.55 37.196C102.931 37.612 103.391 37.9327 103.928 38.158C104.483 38.366 105.254 38.6087 106.242 38.886C107.438 39.2153 108.4 39.5447 109.128 39.874C109.856 40.186 110.48 40.68 111 41.356C111.52 42.0147 111.78 42.916 111.78 44.06C111.78 44.944 111.546 45.776 111.078 46.556C110.61 47.336 109.917 47.9687 108.998 48.454C108.079 48.9393 106.996 49.182 105.748 49.182ZM122.334 34.492C123.408 34.492 124.379 34.726 125.246 35.194C126.112 35.6447 126.788 36.3293 127.274 37.248C127.776 38.1667 128.028 39.2847 128.028 40.602V49H125.688V40.94C125.688 39.5187 125.332 38.4353 124.622 37.69C123.911 36.9273 122.94 36.546 121.71 36.546C120.462 36.546 119.465 36.936 118.72 37.716C117.992 38.496 117.628 39.6313 117.628 41.122V49H115.262V29.76H117.628V36.78C118.096 36.052 118.737 35.4887 119.552 35.09C120.384 34.6913 121.311 34.492 122.334 34.492ZM131.009 41.824C131.009 40.368 131.303 39.094 131.893 38.002C132.482 36.8927 133.288 36.0347 134.311 35.428C135.351 34.8213 136.503 34.518 137.769 34.518C139.017 34.518 140.1 34.7867 141.019 35.324C141.937 35.8613 142.622 36.5373 143.073 37.352V34.752H145.465V49H143.073V46.348C142.605 47.18 141.903 47.8733 140.967 48.428C140.048 48.9653 138.973 49.234 137.743 49.234C136.477 49.234 135.333 48.922 134.311 48.298C133.288 47.674 132.482 46.7987 131.893 45.672C131.303 44.5453 131.009 43.2627 131.009 41.824ZM143.073 41.85C143.073 40.7753 142.856 39.8393 142.423 39.042C141.989 38.2447 141.4 37.638 140.655 37.222C139.927 36.7887 139.121 36.572 138.237 36.572C137.353 36.572 136.547 36.78 135.819 37.196C135.091 37.612 134.51 38.2187 134.077 39.016C133.643 39.8133 133.427 40.7493 133.427 41.824C133.427 42.916 133.643 43.8693 134.077 44.684C134.51 45.4813 135.091 46.0967 135.819 46.53C136.547 46.946 137.353 47.154 138.237 47.154C139.121 47.154 139.927 46.946 140.655 46.53C141.4 46.0967 141.989 45.4813 142.423 44.684C142.856 43.8693 143.073 42.9247 143.073 41.85ZM151.829 37.066C152.245 36.2513 152.834 35.6187 153.597 35.168C154.377 34.7173 155.322 34.492 156.431 34.492V36.936H155.807C153.155 36.936 151.829 38.3747 151.829 41.252V49H149.463V34.752H151.829V37.066ZM172.162 41.33C172.162 41.7807 172.136 42.2573 172.084 42.76H160.696C160.783 44.164 161.259 45.2647 162.126 46.062C163.01 46.842 164.076 47.232 165.324 47.232C166.347 47.232 167.196 46.998 167.872 46.53C168.565 46.0447 169.051 45.4033 169.328 44.606H171.876C171.495 45.9753 170.732 47.0933 169.588 47.96C168.444 48.8093 167.023 49.234 165.324 49.234C163.972 49.234 162.759 48.9307 161.684 48.324C160.627 47.7173 159.795 46.8593 159.188 45.75C158.581 44.6233 158.278 43.3233 158.278 41.85C158.278 40.3767 158.573 39.0853 159.162 37.976C159.751 36.8667 160.575 36.0173 161.632 35.428C162.707 34.8213 163.937 34.518 165.324 34.518C166.676 34.518 167.872 34.8127 168.912 35.402C169.952 35.9913 170.749 36.806 171.304 37.846C171.876 38.8687 172.162 40.03 172.162 41.33ZM169.718 40.836C169.718 39.9347 169.519 39.1633 169.12 38.522C168.721 37.8633 168.175 37.3693 167.482 37.04C166.806 36.6933 166.052 36.52 165.22 36.52C164.024 36.52 163.001 36.9013 162.152 37.664C161.32 38.4267 160.843 39.484 160.722 40.836H169.718ZM188.431 49.234C187.096 49.234 185.883 48.9307 184.791 48.324C183.716 47.7173 182.867 46.8593 182.243 45.75C181.636 44.6233 181.333 43.3233 181.333 41.85C181.333 40.394 181.645 39.1113 182.269 38.002C182.91 36.8753 183.777 36.0173 184.869 35.428C185.961 34.8213 187.183 34.518 188.535 34.518C189.887 34.518 191.109 34.8213 192.201 35.428C193.293 36.0173 194.151 36.8667 194.775 37.976C195.416 39.0853 195.737 40.3767 195.737 41.85C195.737 43.3233 195.408 44.6233 194.749 45.75C194.108 46.8593 193.232 47.7173 192.123 48.324C191.014 48.9307 189.783 49.234 188.431 49.234ZM188.431 47.154C189.28 47.154 190.078 46.9547 190.823 46.556C191.568 46.1573 192.166 45.5593 192.617 44.762C193.085 43.9647 193.319 42.994 193.319 41.85C193.319 40.706 193.094 39.7353 192.643 38.938C192.192 38.1407 191.603 37.5513 190.875 37.17C190.147 36.7713 189.358 36.572 188.509 36.572C187.642 36.572 186.845 36.7713 186.117 37.17C185.406 37.5513 184.834 38.1407 184.401 38.938C183.968 39.7353 183.751 40.706 183.751 41.85C183.751 43.0113 183.959 43.9907 184.375 44.788C184.808 45.5853 185.38 46.1833 186.091 46.582C186.802 46.9633 187.582 47.154 188.431 47.154ZM205.79 34.492C207.523 34.492 208.927 35.0207 210.002 36.078C211.076 37.118 211.614 38.626 211.614 40.602V49H209.274V40.94C209.274 39.5187 208.918 38.4353 208.208 37.69C207.497 36.9273 206.526 36.546 205.296 36.546C204.048 36.546 203.051 36.936 202.306 37.716C201.578 38.496 201.214 39.6313 201.214 41.122V49H198.848V34.752H201.214V36.78C201.682 36.052 202.314 35.4887 203.112 35.09C203.926 34.6913 204.819 34.492 205.79 34.492ZM245.186 30.878L239.934 49H237.282L233.07 34.414L228.702 49L226.076 49.026L221.006 30.878H223.528L227.48 46.244L231.848 30.878H234.5L238.66 46.192L242.638 30.878H245.186ZM254.847 34.492C255.922 34.492 256.893 34.726 257.759 35.194C258.626 35.6447 259.302 36.3293 259.787 37.248C260.29 38.1667 260.541 39.2847 260.541 40.602V49H258.201V40.94C258.201 39.5187 257.846 38.4353 257.135 37.69C256.425 36.9273 255.454 36.546 254.223 36.546C252.975 36.546 251.979 36.936 251.233 37.716C250.505 38.496 250.141 39.6313 250.141 41.122V49H247.775V29.76H250.141V36.78C250.609 36.052 251.251 35.4887 252.065 35.09C252.897 34.6913 253.825 34.492 254.847 34.492ZM263.522 41.824C263.522 40.368 263.817 39.094 264.406 38.002C264.996 36.8927 265.802 36.0347 266.824 35.428C267.864 34.8213 269.017 34.518 270.282 34.518C271.53 34.518 272.614 34.7867 273.532 35.324C274.451 35.8613 275.136 36.5373 275.586 37.352V34.752H277.978V49H275.586V46.348C275.118 47.18 274.416 47.8733 273.48 48.428C272.562 48.9653 271.487 49.234 270.256 49.234C268.991 49.234 267.847 48.922 266.824 48.298C265.802 47.674 264.996 46.7987 264.406 45.672C263.817 44.5453 263.522 43.2627 263.522 41.824ZM275.586 41.85C275.586 40.7753 275.37 39.8393 274.936 39.042C274.503 38.2447 273.914 37.638 273.168 37.222C272.44 36.7887 271.634 36.572 270.75 36.572C269.866 36.572 269.06 36.78 268.332 37.196C267.604 37.612 267.024 38.2187 266.59 39.016C266.157 39.8133 265.94 40.7493 265.94 41.824C265.94 42.916 266.157 43.8693 266.59 44.684C267.024 45.4813 267.604 46.0967 268.332 46.53C269.06 46.946 269.866 47.154 270.75 47.154C271.634 47.154 272.44 46.946 273.168 46.53C273.914 46.0967 274.503 45.4813 274.936 44.684C275.37 43.8693 275.586 42.9247 275.586 41.85ZM284.863 36.702V45.1C284.863 45.7933 285.01 46.2873 285.305 46.582C285.599 46.8593 286.111 46.998 286.839 46.998H288.581V49H286.449C285.131 49 284.143 48.6967 283.485 48.09C282.826 47.4833 282.497 46.4867 282.497 45.1V36.702H280.651V34.752H282.497V31.164H284.863V34.752H288.581V36.702H284.863ZM291.811 30.878H294.437L291.941 36.78H290.277L291.811 30.878ZM302.179 49.234C301.087 49.234 300.107 49.052 299.241 48.688C298.374 48.3067 297.689 47.7867 297.187 47.128C296.684 46.452 296.407 45.6807 296.355 44.814H298.799C298.868 45.5247 299.197 46.1053 299.787 46.556C300.393 47.0067 301.182 47.232 302.153 47.232C303.054 47.232 303.765 47.0327 304.285 46.634C304.805 46.2353 305.065 45.7327 305.065 45.126C305.065 44.502 304.787 44.0427 304.233 43.748C303.678 43.436 302.82 43.1327 301.659 42.838C300.601 42.5607 299.735 42.2833 299.059 42.006C298.4 41.7113 297.828 41.2867 297.343 40.732C296.875 40.16 296.641 39.4147 296.641 38.496C296.641 37.768 296.857 37.1007 297.291 36.494C297.724 35.8873 298.339 35.4107 299.137 35.064C299.934 34.7 300.844 34.518 301.867 34.518C303.444 34.518 304.718 34.9167 305.689 35.714C306.659 36.5113 307.179 37.6033 307.249 38.99H304.883C304.831 38.2447 304.527 37.6467 303.973 37.196C303.435 36.7453 302.707 36.52 301.789 36.52C300.939 36.52 300.263 36.702 299.761 37.066C299.258 37.43 299.007 37.9067 299.007 38.496C299.007 38.964 299.154 39.354 299.449 39.666C299.761 39.9607 300.142 40.2033 300.593 40.394C301.061 40.5673 301.702 40.7667 302.517 40.992C303.539 41.2693 304.371 41.5467 305.013 41.824C305.654 42.084 306.2 42.4827 306.651 43.02C307.119 43.5573 307.361 44.2593 307.379 45.126C307.379 45.906 307.162 46.608 306.729 47.232C306.295 47.856 305.68 48.35 304.883 48.714C304.103 49.0607 303.201 49.234 302.179 49.234ZM328.362 44.97H320.458L319.002 49H316.506L323.058 30.982H325.788L332.314 49H329.818L328.362 44.97ZM327.686 43.046L324.41 33.894L321.134 43.046H327.686ZM337.536 37.378C338.004 36.5633 338.697 35.8873 339.616 35.35C340.552 34.7953 341.635 34.518 342.866 34.518C344.131 34.518 345.275 34.8213 346.298 35.428C347.338 36.0347 348.153 36.8927 348.742 38.002C349.331 39.094 349.626 40.368 349.626 41.824C349.626 43.2627 349.331 44.5453 348.742 45.672C348.153 46.7987 347.338 47.674 346.298 48.298C345.275 48.922 344.131 49.234 342.866 49.234C341.653 49.234 340.578 48.9653 339.642 48.428C338.723 47.8733 338.021 47.1887 337.536 46.374V55.76H335.17V34.752H337.536V37.378ZM347.208 41.824C347.208 40.7493 346.991 39.8133 346.558 39.016C346.125 38.2187 345.535 37.612 344.79 37.196C344.062 36.78 343.256 36.572 342.372 36.572C341.505 36.572 340.699 36.7887 339.954 37.222C339.226 37.638 338.637 38.2533 338.186 39.068C337.753 39.8653 337.536 40.7927 337.536 41.85C337.536 42.9247 337.753 43.8693 338.186 44.684C338.637 45.4813 339.226 46.0967 339.954 46.53C340.699 46.946 341.505 47.154 342.372 47.154C343.256 47.154 344.062 46.946 344.79 46.53C345.535 46.0967 346.125 45.4813 346.558 44.684C346.991 43.8693 347.208 42.916 347.208 41.824ZM355.106 37.378C355.574 36.5633 356.268 35.8873 357.186 35.35C358.122 34.7953 359.206 34.518 360.436 34.518C361.702 34.518 362.846 34.8213 363.868 35.428C364.908 36.0347 365.723 36.8927 366.312 38.002C366.902 39.094 367.196 40.368 367.196 41.824C367.196 43.2627 366.902 44.5453 366.312 45.672C365.723 46.7987 364.908 47.674 363.868 48.298C362.846 48.922 361.702 49.234 360.436 49.234C359.223 49.234 358.148 48.9653 357.212 48.428C356.294 47.8733 355.592 47.1887 355.106 46.374V55.76H352.74V34.752H355.106V37.378ZM364.778 41.824C364.778 40.7493 364.562 39.8133 364.128 39.016C363.695 38.2187 363.106 37.612 362.36 37.196C361.632 36.78 360.826 36.572 359.942 36.572C359.076 36.572 358.27 36.7887 357.524 37.222C356.796 37.638 356.207 38.2533 355.756 39.068C355.323 39.8653 355.106 40.7927 355.106 41.85C355.106 42.9247 355.323 43.8693 355.756 44.684C356.207 45.4813 356.796 46.0967 357.524 46.53C358.27 46.946 359.076 47.154 359.942 47.154C360.826 47.154 361.632 46.946 362.36 46.53C363.106 46.0967 363.695 45.4813 364.128 44.684C364.562 43.8693 364.778 42.916 364.778 41.824Z" fill="white"/>
<defs>
<clipPath id="clip0_166_7">
<rect width="49.7601" height="50" fill="white" transform="translate(32 15)"/>
</clipPath>
</defs>
</svg>
