<svg width="63" height="64" viewBox="0 0 63 64" fill="none" xmlns="http://www.w3.org/2000/svg">
<g clip-path="url(#clip0_166_2)">
<path fill-rule="evenodd" clip-rule="evenodd" d="M53.1371 9.83219C47.2909 3.97843 39.5154 0.753049 31.2307 0.75C14.1594 0.75 0.265875 14.6421 0.259899 31.7178C0.256972 37.1766 1.68404 42.5047 4.39413 47.2003L0 63.25L16.418 58.9434C20.9412 61.4117 26.0346 62.7109 31.2174 62.7124H31.2307C48.299 62.7124 62.1941 48.819 62.2 31.7431C62.2029 23.4674 58.985 15.6875 53.1371 9.83365V9.83219ZM31.2307 57.4823H31.2203C26.6019 57.481 22.0713 56.2393 18.1183 53.8946L17.1783 53.3364L7.43535 55.8919L10.0356 46.3924L9.42368 45.4183C6.84725 41.3198 5.48556 36.5826 5.48849 31.7194C5.49446 17.5273 17.0417 5.98005 31.2412 5.98005C38.1165 5.9831 44.5793 8.66356 49.4394 13.5298C54.3 18.3946 56.9743 24.8633 56.9714 31.7402C56.9653 45.9336 45.4183 57.481 31.2307 57.481V57.4823ZM45.3498 38.2043C44.5761 37.8167 40.7718 35.9456 40.0619 35.6872C39.352 35.4288 38.8369 35.2997 38.3215 36.0748C37.8062 36.8501 36.3228 38.5934 35.8713 39.1086C35.4198 39.6254 34.9684 39.6893 34.1947 39.3016C33.4211 38.914 30.9277 38.0974 27.9711 35.4614C25.671 33.4092 24.1175 30.8759 23.6663 30.1006C23.2148 29.3256 23.6187 28.9068 24.0047 28.5221C24.3522 28.1748 24.7784 27.6179 25.166 27.1664C25.5536 26.7149 25.6813 26.3913 25.9396 25.8759C26.1982 25.359 26.0689 24.9079 25.876 24.5201C25.6828 24.1326 24.1355 20.3235 23.4894 18.7747C22.8612 17.2661 22.2229 17.471 21.7492 17.4457C21.2976 17.4234 20.7824 17.419 20.2656 17.419C19.7489 17.419 18.9113 17.612 18.2015 18.3873C17.4916 19.1622 15.4928 21.0349 15.4928 24.8423C15.4928 28.6499 18.2654 32.3313 18.653 32.8481C19.0404 33.3648 24.1101 41.1802 31.8722 44.5334C33.7181 45.3308 35.1599 45.8074 36.2841 46.1638C38.1374 46.7533 39.8243 46.6703 41.1577 46.4711C42.6444 46.2485 45.7361 44.5986 46.3805 42.7913C47.0249 40.9841 47.0249 39.4338 46.8319 39.1115C46.639 38.7894 46.1222 38.5947 45.3485 38.2073L45.3498 38.2043Z" fill="#43BF53"/>
</g>
<defs>
<clipPath id="clip0_166_2">
<rect width="62.2001" height="62.5" fill="white" transform="translate(0 0.75)"/>
</clipPath>
</defs>
</svg>
